<svg id="svg" version="1.1" xmlns="http://www.w3.org/2000/svg" xmlns:xlink="http://www.w3.org/1999/xlink" width="400" height="366.6666666666667" viewBox="0, 0, 400,366.6666666666667"><g id="svgg"><path id="path0" d="M47.431 18.628 C 47.078 18.983,44.489 22.162,41.677 25.692 C 38.865 29.222,35.300 33.679,33.755 35.596 C 32.209 37.514,29.828 40.486,28.464 42.202 C 24.503 47.181,23.808 48.046,21.251 51.172 C 12.038 62.435,12.350 61.565,15.649 66.789 C 16.987 68.908,18.644 71.550,19.331 72.661 C 20.018 73.771,22.063 76.991,23.876 79.817 C 25.689 82.642,28.036 86.323,29.091 87.997 C 30.146 89.670,32.023 92.600,33.263 94.509 C 34.502 96.417,35.618 98.185,35.742 98.439 C 35.867 98.692,36.586 99.843,37.342 100.996 C 38.881 103.344,42.355 108.783,43.036 109.908 C 43.280 110.312,44.402 111.963,45.528 113.578 C 46.655 115.193,48.390 117.800,49.385 119.371 C 50.379 120.943,52.865 124.824,54.909 127.995 C 56.953 131.167,59.203 134.670,59.909 135.780 C 60.616 136.890,62.254 139.450,63.550 141.468 C 66.246 145.668,68.593 149.346,71.743 154.308 C 72.954 156.215,76.174 161.250,78.899 165.496 C 81.624 169.742,84.020 173.503,84.225 173.855 C 84.429 174.207,84.863 174.908,85.190 175.413 C 85.517 175.917,86.896 178.064,88.254 180.183 C 89.613 182.303,91.367 184.991,92.151 186.158 C 92.936 187.325,93.578 188.345,93.578 188.425 C 93.578 188.980,97.348 194.110,97.629 193.936 C 97.852 193.798,97.982 174.333,97.982 140.986 L 97.982 88.254 96.133 85.320 C 95.117 83.706,94.085 82.063,93.840 81.670 C 93.595 81.276,92.858 80.163,92.202 79.196 C 90.195 76.240,90.335 76.077,95.138 75.782 C 103.284 75.283,133.929 75.711,134.320 76.330 C 134.701 76.934,134.834 132.381,134.456 133.364 C 134.207 134.013,133.578 134.155,133.578 133.563 C 133.578 133.353,133.265 132.734,132.883 132.187 C 132.500 131.640,130.800 129.046,129.103 126.422 C 127.407 123.798,125.697 121.156,125.303 120.550 C 124.909 119.945,124.504 119.284,124.401 119.083 C 123.546 117.393,121.705 114.899,121.435 115.066 C 121.238 115.188,121.103 129.857,121.107 150.939 L 121.113 186.606 121.933 187.992 C 122.383 188.754,124.147 191.562,125.852 194.230 C 127.557 196.899,129.680 200.239,130.570 201.651 C 131.460 203.064,132.708 204.963,133.342 205.872 L 134.495 207.523 134.679 231.009 L 134.862 254.495 138.932 260.917 C 141.171 264.450,144.303 269.321,145.892 271.743 C 147.480 274.165,148.952 276.442,149.161 276.803 C 149.705 277.742,156.639 288.687,159.439 293.028 C 161.916 296.867,162.986 298.557,167.636 305.967 C 169.188 308.442,171.697 312.375,173.211 314.707 C 174.725 317.038,176.294 319.482,176.697 320.138 C 178.503 323.069,180.754 326.638,182.398 329.174 C 183.379 330.688,185.140 333.463,186.311 335.340 C 187.482 337.217,188.688 339.135,188.991 339.602 C 189.294 340.069,190.018 341.228,190.600 342.176 C 191.242 343.224,191.790 343.769,191.995 343.565 C 192.351 343.208,192.437 18.878,192.081 18.302 C 191.641 17.590,48.141 17.913,47.431 18.628 M203.656 18.935 C 203.237 20.039,203.179 341.080,203.598 343.056 L 203.857 344.277 205.058 342.676 C 205.718 341.795,207.203 339.551,208.358 337.690 C 209.514 335.829,211.439 332.780,212.637 330.914 C 213.836 329.049,215.966 325.706,217.371 323.486 C 218.777 321.266,220.779 318.128,221.822 316.514 C 222.864 314.899,224.036 313.058,224.427 312.422 C 224.818 311.786,225.881 310.085,226.789 308.643 C 227.697 307.200,228.609 305.739,228.815 305.395 C 229.434 304.362,231.182 301.651,233.358 298.349 C 234.488 296.633,235.536 294.982,235.687 294.679 C 235.839 294.376,237.025 292.477,238.323 290.459 C 240.431 287.183,242.829 283.414,244.404 280.905 C 249.994 271.995,251.577 269.511,251.760 269.358 C 251.881 269.257,252.093 268.927,252.231 268.624 C 252.369 268.321,253.100 267.130,253.856 265.977 C 255.283 263.798,258.775 258.339,259.553 257.068 C 259.799 256.667,260.289 255.943,260.642 255.459 C 261.238 254.644,261.284 252.900,261.284 231.466 L 261.284 208.353 262.644 206.103 C 263.392 204.866,265.352 201.789,266.999 199.266 C 268.647 196.743,271.173 192.786,272.612 190.472 L 275.229 186.264 275.229 150.555 L 275.229 114.845 274.343 115.426 C 273.855 115.746,273.371 116.229,273.267 116.501 C 273.090 116.961,272.356 118.123,266.763 126.789 C 263.122 132.432,261.988 133.969,261.630 133.748 C 261.062 133.397,261.173 76.445,261.743 76.077 C 262.317 75.705,298.176 75.444,302.294 75.781 C 305.905 76.077,305.887 76.011,303.410 79.817 C 302.358 81.431,301.326 83.034,301.116 83.378 C 300.906 83.722,300.115 85.014,299.358 86.248 L 297.982 88.493 297.982 141.250 C 297.982 170.266,298.092 194.116,298.227 194.251 C 298.447 194.472,301.244 190.956,301.273 190.422 C 301.279 190.301,302.977 187.619,305.046 184.462 C 307.115 181.305,309.305 177.936,309.913 176.975 C 312.458 172.956,325.088 153.161,326.665 150.721 C 327.606 149.265,329.052 147.000,329.878 145.688 C 330.704 144.376,332.352 141.787,333.541 139.933 C 334.729 138.080,335.761 136.429,335.833 136.264 C 335.904 136.098,337.048 134.312,338.374 132.294 C 339.699 130.275,341.516 127.475,342.410 126.072 C 343.305 124.668,345.564 121.200,347.431 118.365 C 352.546 110.599,354.259 107.975,356.187 104.954 C 357.154 103.440,358.791 100.881,359.827 99.266 C 361.703 96.339,362.784 94.636,366.606 88.582 C 367.716 86.824,369.161 84.570,369.817 83.573 C 370.472 82.577,371.009 81.693,371.009 81.611 C 371.009 81.528,371.553 80.678,372.217 79.721 C 372.882 78.764,374.482 76.248,375.774 74.128 C 377.066 72.009,378.834 69.244,379.703 67.983 C 380.573 66.723,381.284 65.597,381.284 65.482 C 381.284 65.366,381.697 64.731,382.202 64.069 C 383.644 62.178,383.462 61.773,378.465 55.758 C 377.217 54.256,373.443 49.560,370.077 45.321 C 361.688 34.756,361.858 34.968,359.977 32.679 C 359.056 31.559,356.511 28.350,354.321 25.549 C 352.132 22.748,349.783 19.899,349.103 19.219 L 347.865 17.982 275.942 17.982 L 204.019 17.982 203.656 18.935 " stroke="none" fill="#2564eb" fill-rule="evenodd"></path><path id="path1" d="M0.000 183.486 L 0.000 366.972 200.000 366.972 L 400.000 366.972 400.000 183.486 L 400.000 0.000 200.000 0.000 L 0.000 0.000 0.000 183.486 M192.081 18.302 C 192.437 18.878,192.351 343.208,191.995 343.565 C 191.790 343.769,191.242 343.224,190.600 342.176 C 190.018 341.228,189.294 340.069,188.991 339.602 C 188.688 339.135,187.482 337.217,186.311 335.340 C 185.140 333.463,183.379 330.688,182.398 329.174 C 180.754 326.638,178.503 323.069,176.697 320.138 C 176.294 319.482,174.725 317.038,173.211 314.707 C 171.697 312.375,169.188 308.442,167.636 305.967 C 162.986 298.557,161.916 296.867,159.439 293.028 C 156.639 288.687,149.705 277.742,149.161 276.803 C 148.952 276.442,147.480 274.165,145.892 271.743 C 144.303 269.321,141.171 264.450,138.932 260.917 L 134.862 254.495 134.679 231.009 L 134.495 207.523 133.342 205.872 C 132.708 204.963,131.460 203.064,130.570 201.651 C 129.680 200.239,127.557 196.899,125.852 194.230 C 124.147 191.562,122.383 188.754,121.933 187.992 L 121.113 186.606 121.107 150.939 C 121.103 129.857,121.238 115.188,121.435 115.066 C 121.705 114.899,123.546 117.393,124.401 119.083 C 124.504 119.284,124.909 119.945,125.303 120.550 C 125.697 121.156,127.407 123.798,129.103 126.422 C 130.800 129.046,132.500 131.640,132.883 132.187 C 133.265 132.734,133.578 133.353,133.578 133.563 C 133.578 134.155,134.207 134.013,134.456 133.364 C 134.834 132.381,134.701 76.934,134.320 76.330 C 133.929 75.711,103.284 75.283,95.138 75.782 C 90.335 76.077,90.195 76.240,92.202 79.196 C 92.858 80.163,93.595 81.276,93.840 81.670 C 94.085 82.063,95.117 83.706,96.133 85.320 L 97.982 88.254 97.982 140.986 C 97.982 174.333,97.852 193.798,97.629 193.936 C 97.348 194.110,93.578 188.980,93.578 188.425 C 93.578 188.345,92.936 187.325,92.151 186.158 C 91.367 184.991,89.613 182.303,88.254 180.183 C 86.896 178.064,85.517 175.917,85.190 175.413 C 84.863 174.908,84.429 174.207,84.225 173.855 C 84.020 173.503,81.624 169.742,78.899 165.496 C 76.174 161.250,72.954 156.215,71.743 154.308 C 68.593 149.346,66.246 145.668,63.550 141.468 C 62.254 139.450,60.616 136.890,59.909 135.780 C 59.203 134.670,56.953 131.167,54.909 127.995 C 52.865 124.824,50.379 120.943,49.385 119.371 C 48.390 117.800,46.655 115.193,45.528 113.578 C 44.402 111.963,43.280 110.312,43.036 109.908 C 42.355 108.783,38.881 103.344,37.342 100.996 C 36.586 99.843,35.867 98.692,35.742 98.439 C 35.618 98.185,34.502 96.417,33.263 94.509 C 32.023 92.600,30.146 89.670,29.091 87.997 C 28.036 86.323,25.689 82.642,23.876 79.817 C 22.063 76.991,20.018 73.771,19.331 72.661 C 18.644 71.550,16.987 68.908,15.649 66.789 C 12.350 61.565,12.038 62.435,21.251 51.172 C 23.808 48.046,24.503 47.181,28.464 42.202 C 29.828 40.486,32.209 37.514,33.755 35.596 C 35.300 33.679,38.865 29.222,41.677 25.692 C 44.489 22.162,47.078 18.983,47.431 18.628 C 48.141 17.913,191.641 17.590,192.081 18.302 M349.103 19.219 C 349.783 19.899,352.132 22.748,354.321 25.549 C 356.511 28.350,359.056 31.559,359.977 32.679 C 361.858 34.968,361.688 34.756,370.077 45.321 C 373.443 49.560,377.217 54.256,378.465 55.758 C 383.462 61.773,383.644 62.178,382.202 64.069 C 381.697 64.731,381.284 65.366,381.284 65.482 C 381.284 65.597,380.573 66.723,379.703 67.983 C 378.834 69.244,377.066 72.009,375.774 74.128 C 374.482 76.248,372.882 78.764,372.217 79.721 C 371.553 80.678,371.009 81.528,371.009 81.611 C 371.009 81.693,370.472 82.577,369.817 83.573 C 369.161 84.570,367.716 86.824,366.606 88.582 C 362.784 94.636,361.703 96.339,359.827 99.266 C 358.791 100.881,357.154 103.440,356.187 104.954 C 354.259 107.975,352.546 110.599,347.431 118.365 C 345.564 121.200,343.305 124.668,342.410 126.072 C 341.516 127.475,339.699 130.275,338.374 132.294 C 337.048 134.312,335.904 136.098,335.833 136.264 C 335.761 136.429,334.729 138.080,333.541 139.933 C 332.352 141.787,330.704 144.376,329.878 145.688 C 329.052 147.000,327.606 149.265,326.665 150.721 C 325.088 153.161,312.458 172.956,309.913 176.975 C 309.305 177.936,307.115 181.305,305.046 184.462 C 302.977 187.619,301.279 190.301,301.273 190.422 C 301.244 190.956,298.447 194.472,298.227 194.251 C 298.092 194.116,297.982 170.266,297.982 141.250 L 297.982 88.493 299.358 86.248 C 300.115 85.014,300.906 83.722,301.116 83.378 C 301.326 83.034,302.358 81.431,303.410 79.817 C 305.887 76.011,305.905 76.077,302.294 75.781 C 298.176 75.444,262.317 75.705,261.743 76.077 C 261.173 76.445,261.062 133.397,261.630 133.748 C 261.988 133.969,263.122 132.432,266.763 126.789 C 272.356 118.123,273.090 116.961,273.267 116.501 C 273.371 116.229,273.855 115.746,274.343 115.426 L 275.229 114.845 275.229 150.555 L 275.229 186.264 272.612 190.472 C 271.173 192.786,268.647 196.743,266.999 199.266 C 265.352 201.789,263.392 204.866,262.644 206.103 L 261.284 208.353 261.284 231.466 C 261.284 252.900,261.238 254.644,260.642 255.459 C 260.289 255.943,259.799 256.667,259.553 257.068 C 258.775 258.339,255.283 263.798,253.856 265.977 C 253.100 267.130,252.369 268.321,252.231 268.624 C 252.093 268.927,251.881 269.257,251.760 269.358 C 251.577 269.511,249.994 271.995,244.404 280.905 C 242.829 283.414,240.431 287.183,238.323 290.459 C 237.025 292.477,235.839 294.376,235.687 294.679 C 235.536 294.982,234.488 296.633,233.358 298.349 C 231.182 301.651,229.434 304.362,228.815 305.395 C 228.609 305.739,227.697 307.200,226.789 308.643 C 225.881 310.085,224.818 311.786,224.427 312.422 C 224.036 313.058,222.864 314.899,221.822 316.514 C 220.779 318.128,218.777 321.266,217.371 323.486 C 215.966 325.706,213.836 329.049,212.637 330.914 C 211.439 332.780,209.514 335.829,208.358 337.690 C 207.203 339.551,205.718 341.795,205.058 342.676 L 203.857 344.277 203.598 343.056 C 203.179 341.080,203.237 20.039,203.656 18.935 L 204.019 17.982 275.942 17.982 L 347.865 17.982 349.103 19.219 " stroke="none" fill="#fbfbfb" fill-rule="evenodd"></path></g></svg>